<?xml version="1.0" encoding="utf-8"?>
<!-- Generator: Adobe Illustrator 15.0.0, SVG Export Plug-In . SVG Version: 6.00 Build 0)  -->
<!DOCTYPE svg PUBLIC "-//W3C//DTD SVG 1.1//EN" "http://www.w3.org/Graphics/SVG/1.1/DTD/svg11.dtd">
<svg version="1.1" id="Layer_1" xmlns="http://www.w3.org/2000/svg" xmlns:xlink="http://www.w3.org/1999/xlink" x="0px" y="0px"
	 width="500px" height="500px" viewBox="0 0 500 500" enable-background="new 0 0 500 500" xml:space="preserve">
<path fill-rule="evenodd" clip-rule="evenodd" d="M193.368,40.727c1.82,1.129,4.265,1.634,6.194,2.655
	c0.907,2.252-2.558,2.186-1.77,4.867c-8.887,2.617-16.581,6.426-20.352,14.158c3.143,1.428,9.522-0.379,11.061,2.655
	c-3.421,4.491-12.273,0.878-18.14,2.654c0.811,13.796,8.142,25.738,11.061,38.492c0.921,4.024,8.124,10.365,11.503,14.601
	c3.441,4.312,7.7,10.467,11.946,12.388c5.697,2.577,12.503,2.121,17.255,7.079c3.893-1.516,6.464-4.526,10.619-6.194
	c3.216-1.291,7.101-0.834,10.176-2.212c5.062-2.269,6.103-8.792,11.062-10.619c2.399-0.483,2.781,1.053,4.424,1.327
	c4.117-1.796,7.692-4.285,11.946-6.194c3.911-1.756,7.476-4.206,11.503-6.194c8.705-4.298,20.61-5.834,30.971-8.406
	c10.62-2.636,20.793-6.331,31.413-7.521c3.713,6.098,6.608,12.365,10.176,18.583c3.401,5.926,8.159,12.021,8.406,19.467
	c-2.432,1.638-2.779-2.086-3.981-3.097c0.104,3.939-0.482,7.186-3.54,7.964c-0.738-10.619-4.002-18.611-9.291-24.776
	c-1.532,0.679-1.974,2.45-4.424,2.212c-0.559-3.718-0.701-7.853-2.213-10.618c-12.587,2.199-22.252,9.602-32.74,15.042
	c-10.562,5.479-23.219,7.08-34.067,13.273c2.496,1.688,3.3,5.041,5.31,7.521c2.258,2.787,6.148,4.897,6.193,10.618
	c0.098,12.288-12.47,20.458-24.776,22.564c-3.432,2.615-4.646,7.462-9.291,7.964c-6.526,0.705-10.458-6.357-11.503-13.273
	c-2.058,11.008,0.738,18.814-7.079,25.661c-1.83,1.603-4.83,2.254-7.079,3.982c-6.235,4.791-11.495,14.131-3.097,19.025
	c12.731-1.139,24.159,1.819,31.413,7.521c12.906-1.127,23.675-5.198,35.396-8.406c11.679-3.197,25.846-6.652,31.413-16.37
	c4.617-8.061,6.891-17.699,13.273-24.334c13.538-14.074,30.73-19.215,49.11-29.644c-0.038-3.86,0.327-5.379,0-8.849
	c1.354-6.103,9.132-4.171,14.601-6.194c2.252-0.833,7.889-4.708,10.176-6.636c2.754-2.323,3.34-5.767,6.637-7.964
	c0.54-0.36,1.885-0.001,2.654-0.443c0.848-0.485,0.778-1.568,1.327-1.77c1.843-0.677,4.5-0.149,7.079-0.885
	c-0.603,11.382-6.636,17.944-12.388,26.546c-9.957,14.889-25.518,21.357-37.607,34.51c-11.6,12.619-23.533,24.138-33.183,38.935
	c-3.143,4.818-5.581,10.915-9.292,14.601c-4.621,4.59-12.437,7.888-18.582,11.946c-12.953,8.554-26.026,13.637-40.262,20.794
	c-3.249,1.634-6.594,3.766-10.176,5.31c-3.688,1.589-8.198,2.075-11.062,3.981c-2.441,1.626-4.993,6.901-7.964,10.619
	c-8.448,10.571-17.929,18.814-27.431,28.315c-5.713,5.714-12.292,11.86-19.024,18.141c-5.308,4.95-16.338,11.589-19.025,17.697
	c-2.029,4.612-2.082,9.651-3.54,13.716c-7.599,21.18-23.625,32.242-39.819,46.013c-4.813,4.093-16.207,11.431-17.255,16.813
	c-0.839,4.308,1.521,8.716-0.442,11.945c-2.504,4.121-10.837,4.122-16.813,3.098c-3.233,2.076-6.197,4.421-9.734,6.193
	c-0.131,2.818-1.906,3.993-2.212,6.637c-3.813,0.513-5.288,5.561-9.292,4.425c-1.377,1.276-2.21,3.099-4.867,3.097
	c-2.002-5.229-0.053-10.318,1.77-14.158c5.984-10.337,12.216-18.729,20.352-26.546c7.964-7.651,16.459-14.82,23.449-23.449
	c7.345-9.067,12.786-18.458,19.467-27.432c3.621-4.862,6.864-8.981,9.291-14.157c2.36-5.034,2.61-11.384,5.752-17.256
	c1.572-2.938,4.772-5.117,6.636-7.964c5.472-8.354,9.915-18.546,15.043-27.431c6.939-12.021,15.529-22.825,23.449-33.625
	c-14.174-10.283-28.229-31.637-30.086-55.748c-0.949-12.32,2.822-19.972,5.752-30.528c2.168-7.813,3.032-15.456,8.406-19.91
	c3.024-2.506,7.097-3.563,10.176-5.751c-7.29-8.725-14.857-18.666-21.68-29.201c-2.238-3.456-5.492-6.798-6.637-10.176
	c-1.682-4.967-1.996-12.078-3.097-18.583c-1.822-10.77-3.027-21.443-3.097-34.068c1.037-2.974,3.799-3.579,6.194-5.309
	c6.305-4.555,11.499-12.22,19.91-12.831c-0.523,3.902-5.503,3.346-6.637,6.636C183.386,45.492,187.762,42.495,193.368,40.727z"/>
</svg>
