<!--?xml version="1.0" standalone="no"?-->

<svg version="1.0" xmlns="http://www.w3.org/2000/svg" width="300.000000pt" height="288.000000pt" viewBox="0 0 300.000000 288.000000" preserveAspectRatio="xMidYMid meet">
<g transform="translate(0.000000,288.000000) scale(0.100000,-0.100000)" fill="#050505" stroke="none">
<path d="M1411 2810 c-63 -71 -81 -78 -81 -36 0 13 -6 29 -14 35 -11 10 -15 1
-19 -51 -9 -99 -31 -193 -54 -221 -11 -15 -54 -62 -95 -105 -63 -68 -80 -81
-123 -91 -28 -6 -57 -16 -65 -21 -9 -5 -27 -3 -48 6 -46 19 -59 18 -67 -5 -5
-18 -55 -55 -98 -73 -21 -9 -22 -6 18 -81 l30 -57 -23 -87 c-32 -124 -48 -151
-122 -206 -106 -79 -170 -137 -194 -176 -31 -49 -106 -293 -106 -345 0 -22 10
-81 23 -131 39 -151 24 -273 -51 -416 -44 -85 -141 -193 -214 -240 -45 -29
-49 -34 -30 -37 28 -4 28 -23 1 -48 -30 -26 -79 -132 -79 -170 0 -38 35 -92
75 -116 28 -16 49 -17 250 -8 134 5 245 15 285 24 59 14 76 14 180 0 136 -18
522 -14 528 6 8 22 -31 49 -87 61 -83 18 -135 43 -183 87 -80 73 -109 78 -158
27 -30 -31 -40 -35 -84 -35 -28 0 -79 7 -112 15 -34 8 -104 15 -157 17 -71 1
-94 5 -90 15 9 24 71 62 134 83 35 12 93 38 129 57 234 128 218 125 396 67 76
-25 181 -65 233 -91 87 -43 101 -46 206 -54 179 -13 355 -53 478 -109 27 -12
90 -32 140 -45 190 -49 262 -81 364 -163 50 -40 73 -52 110 -56 27 -3 77 -11
113 -17 112 -20 221 -17 249 7 7 6 -69 113 -94 132 -30 24 -141 49 -248 55
-66 5 -88 11 -152 46 -41 22 -98 57 -127 78 -162 119 -299 203 -371 229 -23 8
-96 21 -162 29 -66 7 -136 21 -155 30 -85 39 -328 172 -371 203 l-37 27 24 46
23 47 -38 -5 c-47 -6 -94 16 -187 91 -53 43 -88 62 -152 82 -74 24 -86 31
-108 65 -13 22 -29 39 -34 39 -36 0 -26 130 14 184 14 17 38 60 55 96 35 72
65 110 132 165 52 44 125 145 134 186 4 16 11 32 17 35 11 7 9 -20 -12 -120
-23 -113 32 -190 158 -221 58 -14 77 -15 107 -5 45 15 65 35 65 66 0 21 -3 23
-19 14 -25 -13 -82 -13 -116 0 -36 14 -53 60 -65 177 -6 54 -18 115 -27 136
-15 34 -15 38 0 55 12 13 17 37 17 75 0 52 3 60 47 114 26 32 55 65 64 73 9 8
50 56 92 105 88 105 156 172 212 209 22 14 49 32 60 39 11 8 40 26 63 41 49
31 50 46 2 26 -45 -19 -47 -6 -6 41 23 25 35 47 32 56 -4 9 -2 21 4 28 8 9 8
15 1 20 -6 3 -33 -15 -61 -41 -28 -26 -54 -44 -58 -40 -4 5 14 27 41 49 45 40
57 57 38 57 -9 0 -142 -99 -153 -115 -8 -11 -11 -1 -9 27 3 24 -18 60 -30 53
-5 -4 -9 -22 -9 -42 0 -20 -8 -50 -19 -67 -10 -17 -22 -48 -25 -68 -9 -50 -42
-87 -153 -170 -51 -38 -114 -94 -140 -125 -26 -30 -49 -50 -51 -43 -2 6 25 59
59 117 52 86 83 124 168 204 97 91 127 133 69 95 -35 -23 -42 -8 -14 28 28 38
42 76 26 76 -8 0 -8 6 0 21 22 40 -2 34 -41 -11 -21 -25 -39 -48 -39 -52 0 -5
-4 -8 -10 -8 -18 0 -11 15 25 57 34 40 44 63 26 63 -4 0 -36 -32 -70 -70z" id="node1" class="node"></path>
</g>
<g transform="translate(0.000000,288.000000) scale(0.100000,-0.100000)" fill="#A1A1A1" stroke="none">



<path d="M2970 10 c-12 -8 -11 -10 8 -10 12 0 22 5 22 10 0 13 -11 13 -30 0z" id="node5" class="node"></path>
<path d="M2903 3 c9 -2 23 -2 30 0 6 3 -1 5 -18 5 -16 0 -22 -2 -12 -5z" id="node6" class="node"></path>
</g>
</svg>